<svg id="visual" viewBox="0 0 300 600" width="300" height="600" xmlns="http://www.w3.org/2000/svg" xmlns:xlink="http://www.w3.org/1999/xlink" version="1.1"><path d="M0 449L7.2 442.7C14.3 436.3 28.7 423.7 43 421.8C57.3 420 71.7 429 86 432.8C100.3 436.7 114.7 435.3 128.8 435.8C143 436.3 157 438.7 171.2 436.8C185.3 435 199.7 429 214 433.3C228.3 437.7 242.7 452.3 257 451.2C271.3 450 285.7 433 292.8 424.5L300 416L300 601L292.8 601C285.7 601 271.3 601 257 601C242.7 601 228.3 601 214 601C199.7 601 185.3 601 171.2 601C157 601 143 601 128.8 601C114.7 601 100.3 601 86 601C71.7 601 57.3 601 43 601C28.7 601 14.3 601 7.2 601L0 601Z" fill="#422afb"></path><path d="M0 459L7.2 463.3C14.3 467.7 28.7 476.3 43 478.3C57.3 480.3 71.7 475.7 86 468C100.3 460.3 114.7 449.7 128.8 443.3C143 437 157 435 171.2 437.2C185.3 439.3 199.7 445.7 214 450.2C228.3 454.7 242.7 457.3 257 460C271.3 462.7 285.7 465.3 292.8 466.7L300 468L300 601L292.8 601C285.7 601 271.3 601 257 601C242.7 601 228.3 601 214 601C199.7 601 185.3 601 171.2 601C157 601 143 601 128.8 601C114.7 601 100.3 601 86 601C71.7 601 57.3 601 43 601C28.7 601 14.3 601 7.2 601L0 601Z" fill="#5039fc"></path><path d="M0 487L7.2 485.7C14.3 484.3 28.7 481.7 43 484.7C57.3 487.7 71.7 496.3 86 497.3C100.3 498.3 114.7 491.7 128.8 489.3C143 487 157 489 171.2 486.5C185.3 484 199.7 477 214 473.2C228.3 469.3 242.7 468.7 257 475C271.3 481.3 285.7 494.7 292.8 501.3L300 508L300 601L292.8 601C285.7 601 271.3 601 257 601C242.7 601 228.3 601 214 601C199.7 601 185.3 601 171.2 601C157 601 143 601 128.8 601C114.7 601 100.3 601 86 601C71.7 601 57.3 601 43 601C28.7 601 14.3 601 7.2 601L0 601Z" fill="#5c47fe"></path><path d="M0 517L7.2 516.7C14.3 516.3 28.7 515.7 43 515.2C57.3 514.7 71.7 514.3 86 512.5C100.3 510.7 114.7 507.3 128.8 509.3C143 511.3 157 518.7 171.2 522C185.3 525.3 199.7 524.7 214 522.3C228.3 520 242.7 516 257 517.3C271.3 518.7 285.7 525.3 292.8 528.7L300 532L300 601L292.8 601C285.7 601 271.3 601 257 601C242.7 601 228.3 601 214 601C199.7 601 185.3 601 171.2 601C157 601 143 601 128.8 601C114.7 601 100.3 601 86 601C71.7 601 57.3 601 43 601C28.7 601 14.3 601 7.2 601L0 601Z" fill="#6753fe"></path><path d="M0 539L7.2 536.3C14.3 533.7 28.7 528.3 43 530.8C57.3 533.3 71.7 543.7 86 549C100.3 554.3 114.7 554.7 128.8 554.3C143 554 157 553 171.2 552.5C185.3 552 199.7 552 214 548.7C228.3 545.3 242.7 538.7 257 539C271.3 539.3 285.7 546.7 292.8 550.3L300 554L300 601L292.8 601C285.7 601 271.3 601 257 601C242.7 601 228.3 601 214 601C199.7 601 185.3 601 171.2 601C157 601 143 601 128.8 601C114.7 601 100.3 601 86 601C71.7 601 57.3 601 43 601C28.7 601 14.3 601 7.2 601L0 601Z" fill="#725fff"></path><path d="M0 573L7.2 572.3C14.3 571.7 28.7 570.3 43 567.2C57.3 564 71.7 559 86 558.2C100.3 557.3 114.7 560.7 128.8 564.5C143 568.3 157 572.7 171.2 570.5C185.3 568.3 199.7 559.7 214 558.2C228.3 556.7 242.7 562.3 257 562.5C271.3 562.7 285.7 557.3 292.8 554.7L300 552L300 601L292.8 601C285.7 601 271.3 601 257 601C242.7 601 228.3 601 214 601C199.7 601 185.3 601 171.2 601C157 601 143 601 128.8 601C114.7 601 100.3 601 86 601C71.7 601 57.3 601 43 601C28.7 601 14.3 601 7.2 601L0 601Z" fill="#7c6bff"></path></svg>