<svg id="visual" viewBox="0 0 1000 300" width="1000" height="300" xmlns="http://www.w3.org/2000/svg" xmlns:xlink="http://www.w3.org/1999/xlink" version="1.1"><path d="M0 197L20.8 191.3C41.7 185.7 83.3 174.3 125 174.8C166.7 175.3 208.3 187.7 250 185.7C291.7 183.7 333.3 167.3 375 167.2C416.7 167 458.3 183 500 185.7C541.7 188.3 583.3 177.7 625 178.7C666.7 179.7 708.3 192.3 750 194C791.7 195.7 833.3 186.3 875 179.7C916.7 173 958.3 169 979.2 167L1000 165L1000 301L979.2 301C958.3 301 916.7 301 875 301C833.3 301 791.7 301 750 301C708.3 301 666.7 301 625 301C583.3 301 541.7 301 500 301C458.3 301 416.7 301 375 301C333.3 301 291.7 301 250 301C208.3 301 166.7 301 125 301C83.3 301 41.7 301 20.8 301L0 301Z" fill="#796cde"></path><path d="M0 208L20.8 202.7C41.7 197.3 83.3 186.7 125 182.8C166.7 179 208.3 182 250 188.2C291.7 194.3 333.3 203.7 375 209.2C416.7 214.7 458.3 216.3 500 211.7C541.7 207 583.3 196 625 188.8C666.7 181.7 708.3 178.3 750 178C791.7 177.7 833.3 180.3 875 187C916.7 193.7 958.3 204.3 979.2 209.7L1000 215L1000 301L979.2 301C958.3 301 916.7 301 875 301C833.3 301 791.7 301 750 301C708.3 301 666.7 301 625 301C583.3 301 541.7 301 500 301C458.3 301 416.7 301 375 301C333.3 301 291.7 301 250 301C208.3 301 166.7 301 125 301C83.3 301 41.7 301 20.8 301L0 301Z" fill="#6d5ee6"></path><path d="M0 198L20.8 198C41.7 198 83.3 198 125 202.8C166.7 207.7 208.3 217.3 250 222.5C291.7 227.7 333.3 228.3 375 230.8C416.7 233.3 458.3 237.7 500 232.7C541.7 227.7 583.3 213.3 625 210C666.7 206.7 708.3 214.3 750 221C791.7 227.7 833.3 233.3 875 231C916.7 228.7 958.3 218.3 979.2 213.2L1000 208L1000 301L979.2 301C958.3 301 916.7 301 875 301C833.3 301 791.7 301 750 301C708.3 301 666.7 301 625 301C583.3 301 541.7 301 500 301C458.3 301 416.7 301 375 301C333.3 301 291.7 301 250 301C208.3 301 166.7 301 125 301C83.3 301 41.7 301 20.8 301L0 301Z" fill="#614fee"></path><path d="M0 231L20.8 232.2C41.7 233.3 83.3 235.7 125 238.2C166.7 240.7 208.3 243.3 250 244.7C291.7 246 333.3 246 375 243.3C416.7 240.7 458.3 235.3 500 233C541.7 230.7 583.3 231.3 625 236C666.7 240.7 708.3 249.3 750 253.8C791.7 258.3 833.3 258.7 875 254.8C916.7 251 958.3 243 979.2 239L1000 235L1000 301L979.2 301C958.3 301 916.7 301 875 301C833.3 301 791.7 301 750 301C708.3 301 666.7 301 625 301C583.3 301 541.7 301 500 301C458.3 301 416.7 301 375 301C333.3 301 291.7 301 250 301C208.3 301 166.7 301 125 301C83.3 301 41.7 301 20.8 301L0 301Z" fill="#533ef5"></path><path d="M0 257L20.8 260.2C41.7 263.3 83.3 269.7 125 270.5C166.7 271.3 208.3 266.7 250 265.5C291.7 264.3 333.3 266.7 375 265.3C416.7 264 458.3 259 500 258C541.7 257 583.3 260 625 259.5C666.7 259 708.3 255 750 254.8C791.7 254.7 833.3 258.3 875 258.8C916.7 259.3 958.3 256.7 979.2 255.3L1000 254L1000 301L979.2 301C958.3 301 916.7 301 875 301C833.3 301 791.7 301 750 301C708.3 301 666.7 301 625 301C583.3 301 541.7 301 500 301C458.3 301 416.7 301 375 301C333.3 301 291.7 301 250 301C208.3 301 166.7 301 125 301C83.3 301 41.7 301 20.8 301L0 301Z" fill="#422afb"></path></svg>