<svg id="visual" viewBox="0 0 350 960" width="350" height="960" xmlns="http://www.w3.org/2000/svg" xmlns:xlink="http://www.w3.org/1999/xlink" version="1.1"><path d="M0 609L8.3 617.3C16.7 625.7 33.3 642.3 50 642.5C66.7 642.7 83.3 626.3 100 610.3C116.7 594.3 133.3 578.7 150 576.8C166.7 575 183.3 587 200 609C216.7 631 233.3 663 250 673C266.7 683 283.3 671 300 665.8C316.7 660.7 333.3 662.3 341.7 663.2L350 664L350 961L341.7 961C333.3 961 316.7 961 300 961C283.3 961 266.7 961 250 961C233.3 961 216.7 961 200 961C183.3 961 166.7 961 150 961C133.3 961 116.7 961 100 961C83.3 961 66.7 961 50 961C33.3 961 16.7 961 8.3 961L0 961Z" fill="#472ffb"></path><path d="M0 674L8.3 667.2C16.7 660.3 33.3 646.7 50 643.3C66.7 640 83.3 647 100 662.8C116.7 678.7 133.3 703.3 150 717.7C166.7 732 183.3 736 200 730.2C216.7 724.3 233.3 708.7 250 691.8C266.7 675 283.3 657 300 661.7C316.7 666.3 333.3 693.7 341.7 707.3L350 721L350 961L341.7 961C333.3 961 316.7 961 300 961C283.3 961 266.7 961 250 961C233.3 961 216.7 961 200 961C183.3 961 166.7 961 150 961C133.3 961 116.7 961 100 961C83.3 961 66.7 961 50 961C33.3 961 16.7 961 8.3 961L0 961Z" fill="#5a44fc"></path><path d="M0 749L8.3 746.8C16.7 744.7 33.3 740.3 50 746.5C66.7 752.7 83.3 769.3 100 774C116.7 778.7 133.3 771.3 150 759.2C166.7 747 183.3 730 200 720.8C216.7 711.7 233.3 710.3 250 711C266.7 711.7 283.3 714.3 300 716.3C316.7 718.3 333.3 719.7 341.7 720.3L350 721L350 961L341.7 961C333.3 961 316.7 961 300 961C283.3 961 266.7 961 250 961C233.3 961 216.7 961 200 961C183.3 961 166.7 961 150 961C133.3 961 116.7 961 100 961C83.3 961 66.7 961 50 961C33.3 961 16.7 961 8.3 961L0 961Z" fill="#6a57fd"></path><path d="M0 813L8.3 816.2C16.7 819.3 33.3 825.7 50 826.3C66.7 827 83.3 822 100 817C116.7 812 133.3 807 150 804.7C166.7 802.3 183.3 802.7 200 804.8C216.7 807 233.3 811 250 815.7C266.7 820.3 283.3 825.7 300 823.5C316.7 821.3 333.3 811.7 341.7 806.8L350 802L350 961L341.7 961C333.3 961 316.7 961 300 961C283.3 961 266.7 961 250 961C233.3 961 216.7 961 200 961C183.3 961 166.7 961 150 961C133.3 961 116.7 961 100 961C83.3 961 66.7 961 50 961C33.3 961 16.7 961 8.3 961L0 961Z" fill="#7968fd"></path><path d="M0 907L8.3 897.8C16.7 888.7 33.3 870.3 50 864.5C66.7 858.7 83.3 865.3 100 875.7C116.7 886 133.3 900 150 906.8C166.7 913.7 183.3 913.3 200 914C216.7 914.7 233.3 916.3 250 916.8C266.7 917.3 283.3 916.7 300 904.7C316.7 892.7 333.3 869.3 341.7 857.7L350 846L350 961L341.7 961C333.3 961 316.7 961 300 961C283.3 961 266.7 961 250 961C233.3 961 216.7 961 200 961C183.3 961 166.7 961 150 961C133.3 961 116.7 961 100 961C83.3 961 66.7 961 50 961C33.3 961 16.7 961 8.3 961L0 961Z" fill="#8879fc"></path></svg>