<svg id="visual" viewBox="0 0 2000 1500" width="2000" height="1500" xmlns="http://www.w3.org/2000/svg" xmlns:xlink="http://www.w3.org/1999/xlink" version="1.1"><g stroke-width="1" stroke-linejoin="bevel"><path d="M1043 802L1154 856L1120 760Z" fill="#8274ec" stroke="#8274ec"></path><path d="M1043 802L983 950L1154 856Z" fill="#8274ec" stroke="#8274ec"></path><path d="M1154 856L1219 698L1120 760Z" fill="#5f50ce" stroke="#5f50ce"></path><path d="M1120 760L928 674L1043 802Z" fill="#5849c8" stroke="#5849c8"></path><path d="M959 853L983 950L1043 802Z" fill="#978aff" stroke="#978aff"></path><path d="M1298 990L1294 831L1154 856Z" fill="#6d5fda" stroke="#6d5fda"></path><path d="M1154 856L1294 831L1219 698Z" fill="#8274ec" stroke="#8274ec"></path><path d="M1219 698L1114 621L1120 760Z" fill="#7b6de6" stroke="#7b6de6"></path><path d="M869 734L887 838L959 853Z" fill="#897bf3" stroke="#897bf3"></path><path d="M983 950L1181 1014L1154 856Z" fill="#9083f9" stroke="#9083f9"></path><path d="M928 674L959 853L1043 802Z" fill="#6d5fda" stroke="#6d5fda"></path><path d="M959 853L887 838L983 950Z" fill="#6658d4" stroke="#6658d4"></path><path d="M1114 621L928 674L1120 760Z" fill="#6658d4" stroke="#6658d4"></path><path d="M928 674L869 734L959 853Z" fill="#5142c2" stroke="#5142c2"></path><path d="M915 1090L1076 1072L983 950Z" fill="#5f50ce" stroke="#5f50ce"></path><path d="M983 950L1076 1072L1181 1014Z" fill="#5f50ce" stroke="#5f50ce"></path><path d="M1353 749L1290 643L1219 698Z" fill="#7b6de6" stroke="#7b6de6"></path><path d="M1232 536L1166 535L1114 621Z" fill="#8274ec" stroke="#8274ec"></path><path d="M1166 535L1020 575L1114 621Z" fill="#5142c2" stroke="#5142c2"></path><path d="M1114 621L1020 575L928 674Z" fill="#5142c2" stroke="#5142c2"></path><path d="M928 674L758 671L869 734Z" fill="#6d5fda" stroke="#6d5fda"></path><path d="M1367 1024L1298 990L1272 1157Z" fill="#8274ec" stroke="#8274ec"></path><path d="M1181 1014L1298 990L1154 856Z" fill="#6658d4" stroke="#6658d4"></path><path d="M1294 831L1353 749L1219 698Z" fill="#5f50ce" stroke="#5f50ce"></path><path d="M1377 874L1353 749L1294 831Z" fill="#8274ec" stroke="#8274ec"></path><path d="M1298 990L1377 874L1294 831Z" fill="#6658d4" stroke="#6658d4"></path><path d="M1232 536L1114 621L1219 698Z" fill="#8274ec" stroke="#8274ec"></path><path d="M1353 749L1341 629L1290 643Z" fill="#978aff" stroke="#978aff"></path><path d="M1290 643L1232 536L1219 698Z" fill="#5142c2" stroke="#5142c2"></path><path d="M1470 599L1341 629L1353 749Z" fill="#7b6de6" stroke="#7b6de6"></path><path d="M1341 629L1232 536L1290 643Z" fill="#7466e0" stroke="#7466e0"></path><path d="M832 1023L983 950L887 838Z" fill="#7b6de6" stroke="#7b6de6"></path><path d="M832 1023L915 1090L983 950Z" fill="#9083f9" stroke="#9083f9"></path><path d="M1166 535L1021 499L1020 575Z" fill="#6d5fda" stroke="#6d5fda"></path><path d="M1020 575L868 509L928 674Z" fill="#7466e0" stroke="#7466e0"></path><path d="M1094 388L1021 499L1166 535Z" fill="#5849c8" stroke="#5849c8"></path><path d="M1272 1157L1298 990L1181 1014Z" fill="#8274ec" stroke="#8274ec"></path><path d="M1298 990L1367 1024L1377 874Z" fill="#5142c2" stroke="#5142c2"></path><path d="M796 994L832 1023L887 838Z" fill="#5849c8" stroke="#5849c8"></path><path d="M723 852L796 994L887 838Z" fill="#5142c2" stroke="#5142c2"></path><path d="M1015 1282L989 1165L872 1230Z" fill="#9083f9" stroke="#9083f9"></path><path d="M1076 1278L989 1165L1015 1282Z" fill="#5849c8" stroke="#5849c8"></path><path d="M915 1090L989 1165L1076 1072Z" fill="#978aff" stroke="#978aff"></path><path d="M1076 1072L1272 1157L1181 1014Z" fill="#7b6de6" stroke="#7b6de6"></path><path d="M1367 1024L1458 927L1377 874Z" fill="#7b6de6" stroke="#7b6de6"></path><path d="M1377 874L1514 751L1353 749Z" fill="#9083f9" stroke="#9083f9"></path><path d="M868 509L758 671L928 674Z" fill="#8274ec" stroke="#8274ec"></path><path d="M869 734L723 852L887 838Z" fill="#5f50ce" stroke="#5f50ce"></path><path d="M1215 1270L1272 1157L1076 1072Z" fill="#7466e0" stroke="#7466e0"></path><path d="M1367 1024L1523 968L1458 927Z" fill="#5849c8" stroke="#5849c8"></path><path d="M704 773L723 852L869 734Z" fill="#8274ec" stroke="#8274ec"></path><path d="M1021 499L868 509L1020 575Z" fill="#7466e0" stroke="#7466e0"></path><path d="M758 671L704 773L869 734Z" fill="#5142c2" stroke="#5142c2"></path><path d="M1458 927L1514 751L1377 874Z" fill="#897bf3" stroke="#897bf3"></path><path d="M1341 629L1369 459L1232 536Z" fill="#897bf3" stroke="#897bf3"></path><path d="M1514 751L1470 599L1353 749Z" fill="#6d5fda" stroke="#6d5fda"></path><path d="M1234 343L1166 535L1232 536Z" fill="#5f50ce" stroke="#5f50ce"></path><path d="M1234 343L1094 388L1166 535Z" fill="#5849c8" stroke="#5849c8"></path><path d="M1021 499L925 375L868 509Z" fill="#897bf3" stroke="#897bf3"></path><path d="M868 509L799 502L758 671Z" fill="#7466e0" stroke="#7466e0"></path><path d="M758 671L658 704L704 773Z" fill="#7466e0" stroke="#7466e0"></path><path d="M925 375L799 502L868 509Z" fill="#897bf3" stroke="#897bf3"></path><path d="M1272 1157L1422 1124L1367 1024Z" fill="#9083f9" stroke="#9083f9"></path><path d="M1458 927L1627 876L1514 751Z" fill="#6d5fda" stroke="#6d5fda"></path><path d="M1422 1124L1523 968L1367 1024Z" fill="#5849c8" stroke="#5849c8"></path><path d="M1470 599L1369 459L1341 629Z" fill="#8274ec" stroke="#8274ec"></path><path d="M989 1165L915 1090L872 1230Z" fill="#7466e0" stroke="#7466e0"></path><path d="M989 1165L1076 1278L1076 1072Z" fill="#978aff" stroke="#978aff"></path><path d="M1272 1157L1381 1251L1422 1124Z" fill="#5849c8" stroke="#5849c8"></path><path d="M636 600L658 704L758 671Z" fill="#978aff" stroke="#978aff"></path><path d="M581 902L642 1010L723 852Z" fill="#9083f9" stroke="#9083f9"></path><path d="M1076 1278L1215 1270L1076 1072Z" fill="#6658d4" stroke="#6658d4"></path><path d="M1094 388L977 371L1021 499Z" fill="#5849c8" stroke="#5849c8"></path><path d="M872 1230L915 1090L745 1152Z" fill="#6658d4" stroke="#6658d4"></path><path d="M1076 1278L1144 1319L1215 1270Z" fill="#978aff" stroke="#978aff"></path><path d="M745 1152L832 1023L796 994Z" fill="#9083f9" stroke="#9083f9"></path><path d="M745 1152L915 1090L832 1023Z" fill="#897bf3" stroke="#897bf3"></path><path d="M745 1152L796 994L642 1010Z" fill="#9083f9" stroke="#9083f9"></path><path d="M977 371L925 375L1021 499Z" fill="#897bf3" stroke="#897bf3"></path><path d="M642 1010L796 994L723 852Z" fill="#8274ec" stroke="#8274ec"></path><path d="M1369 459L1234 343L1232 536Z" fill="#7b6de6" stroke="#7b6de6"></path><path d="M1094 388L985 235L977 371Z" fill="#6d5fda" stroke="#6d5fda"></path><path d="M840 253L770 358L925 375Z" fill="#5142c2" stroke="#5142c2"></path><path d="M581 902L723 852L704 773Z" fill="#5142c2" stroke="#5142c2"></path><path d="M1043 1346L1144 1319L1076 1278Z" fill="#6658d4" stroke="#6658d4"></path><path d="M1215 1270L1381 1251L1272 1157Z" fill="#5f50ce" stroke="#5f50ce"></path><path d="M1422 1124L1581 1032L1523 968Z" fill="#9083f9" stroke="#9083f9"></path><path d="M1472 1291L1381 1251L1335 1376Z" fill="#5849c8" stroke="#5849c8"></path><path d="M589 532L636 600L799 502Z" fill="#897bf3" stroke="#897bf3"></path><path d="M799 502L636 600L758 671Z" fill="#5142c2" stroke="#5142c2"></path><path d="M498 768L581 902L704 773Z" fill="#9083f9" stroke="#9083f9"></path><path d="M1555 1138L1581 1032L1422 1124Z" fill="#7466e0" stroke="#7466e0"></path><path d="M1523 968L1627 876L1458 927Z" fill="#7b6de6" stroke="#7b6de6"></path><path d="M1581 1032L1627 876L1523 968Z" fill="#8274ec" stroke="#8274ec"></path><path d="M1640 621L1530 490L1470 599Z" fill="#5849c8" stroke="#5849c8"></path><path d="M498 768L704 773L658 704Z" fill="#8274ec" stroke="#8274ec"></path><path d="M878 1400L1043 1346L1015 1282Z" fill="#978aff" stroke="#978aff"></path><path d="M1015 1282L1043 1346L1076 1278Z" fill="#5142c2" stroke="#5142c2"></path><path d="M878 1400L1015 1282L872 1230Z" fill="#6658d4" stroke="#6658d4"></path><path d="M1470 599L1530 490L1369 459Z" fill="#5849c8" stroke="#5849c8"></path><path d="M1369 459L1330 325L1234 343Z" fill="#6658d4" stroke="#6658d4"></path><path d="M1640 621L1470 599L1514 751Z" fill="#8274ec" stroke="#8274ec"></path><path d="M642 1010L664 1142L745 1152Z" fill="#5f50ce" stroke="#5f50ce"></path><path d="M745 1152L700 1238L872 1230Z" fill="#978aff" stroke="#978aff"></path><path d="M444 1086L664 1142L642 1010Z" fill="#5142c2" stroke="#5142c2"></path><path d="M1501 270L1330 325L1369 459Z" fill="#8274ec" stroke="#8274ec"></path><path d="M1140 217L985 235L1094 388Z" fill="#5142c2" stroke="#5142c2"></path><path d="M1472 1291L1555 1138L1422 1124Z" fill="#6d5fda" stroke="#6d5fda"></path><path d="M1581 1032L1705 928L1627 876Z" fill="#897bf3" stroke="#897bf3"></path><path d="M1330 325L1275 294L1234 343Z" fill="#7b6de6" stroke="#7b6de6"></path><path d="M1627 876L1658 735L1514 751Z" fill="#9083f9" stroke="#9083f9"></path><path d="M985 235L925 375L977 371Z" fill="#6d5fda" stroke="#6d5fda"></path><path d="M925 375L770 358L799 502Z" fill="#9083f9" stroke="#9083f9"></path><path d="M1658 735L1640 621L1514 751Z" fill="#7b6de6" stroke="#7b6de6"></path><path d="M664 1142L700 1238L745 1152Z" fill="#6658d4" stroke="#6658d4"></path><path d="M1652 501L1535 429L1530 490Z" fill="#7b6de6" stroke="#7b6de6"></path><path d="M1530 490L1535 429L1369 459Z" fill="#6658d4" stroke="#6658d4"></path><path d="M1330 325L1336 219L1275 294Z" fill="#5f50ce" stroke="#5f50ce"></path><path d="M609 392L589 532L799 502Z" fill="#8274ec" stroke="#8274ec"></path><path d="M510 614L498 768L658 704Z" fill="#5f50ce" stroke="#5f50ce"></path><path d="M1140 217L1094 388L1234 343Z" fill="#7466e0" stroke="#7466e0"></path><path d="M1335 1376L1381 1251L1215 1270Z" fill="#7b6de6" stroke="#7b6de6"></path><path d="M1381 1251L1472 1291L1422 1124Z" fill="#5f50ce" stroke="#5f50ce"></path><path d="M1335 1376L1215 1270L1218 1420Z" fill="#5f50ce" stroke="#5f50ce"></path><path d="M1218 1420L1215 1270L1144 1319Z" fill="#5142c2" stroke="#5142c2"></path><path d="M1275 294L1140 217L1234 343Z" fill="#9083f9" stroke="#9083f9"></path><path d="M1167 167L1140 217L1275 294Z" fill="#6d5fda" stroke="#6d5fda"></path><path d="M510 614L658 704L636 600Z" fill="#7466e0" stroke="#7466e0"></path><path d="M581 902L499 973L642 1010Z" fill="#897bf3" stroke="#897bf3"></path><path d="M580 1230L708 1339L700 1238Z" fill="#8274ec" stroke="#8274ec"></path><path d="M1107 1500L1218 1420L1144 1319Z" fill="#5f50ce" stroke="#5f50ce"></path><path d="M1107 1500L1144 1319L1043 1346Z" fill="#5849c8" stroke="#5849c8"></path><path d="M1681 1139L1581 1032L1555 1138Z" fill="#7b6de6" stroke="#7b6de6"></path><path d="M1773 997L1705 928L1581 1032Z" fill="#6d5fda" stroke="#6d5fda"></path><path d="M1627 876L1705 928L1658 735Z" fill="#7466e0" stroke="#7466e0"></path><path d="M1735 517L1652 501L1640 621Z" fill="#7b6de6" stroke="#7b6de6"></path><path d="M708 1339L878 1400L872 1230Z" fill="#5849c8" stroke="#5849c8"></path><path d="M444 887L499 973L581 902Z" fill="#978aff" stroke="#978aff"></path><path d="M985 235L840 253L925 375Z" fill="#7b6de6" stroke="#7b6de6"></path><path d="M770 358L609 392L799 502Z" fill="#5849c8" stroke="#5849c8"></path><path d="M589 532L510 614L636 600Z" fill="#7b6de6" stroke="#7b6de6"></path><path d="M495 475L510 614L589 532Z" fill="#5142c2" stroke="#5142c2"></path><path d="M1335 1376L1491 1322L1472 1291Z" fill="#5f50ce" stroke="#5f50ce"></path><path d="M1472 1291L1657 1259L1555 1138Z" fill="#978aff" stroke="#978aff"></path><path d="M1394 1500L1491 1322L1335 1376Z" fill="#5f50ce" stroke="#5f50ce"></path><path d="M1748 663L1640 621L1658 735Z" fill="#7466e0" stroke="#7466e0"></path><path d="M1640 621L1652 501L1530 490Z" fill="#6d5fda" stroke="#6d5fda"></path><path d="M1501 270L1369 459L1535 429Z" fill="#897bf3" stroke="#897bf3"></path><path d="M1501 270L1336 219L1330 325Z" fill="#6d5fda" stroke="#6d5fda"></path><path d="M1652 501L1572 372L1535 429Z" fill="#8274ec" stroke="#8274ec"></path><path d="M700 1238L708 1339L872 1230Z" fill="#8274ec" stroke="#8274ec"></path><path d="M580 1230L700 1238L664 1142Z" fill="#6658d4" stroke="#6658d4"></path><path d="M644 222L609 392L770 358Z" fill="#897bf3" stroke="#897bf3"></path><path d="M1336 219L1167 167L1275 294Z" fill="#9083f9" stroke="#9083f9"></path><path d="M1140 217L1012 144L985 235Z" fill="#5f50ce" stroke="#5f50ce"></path><path d="M846 101L753 246L840 253Z" fill="#6658d4" stroke="#6658d4"></path><path d="M1657 1259L1681 1139L1555 1138Z" fill="#7b6de6" stroke="#7b6de6"></path><path d="M498 768L444 887L581 902Z" fill="#7466e0" stroke="#7466e0"></path><path d="M444 1086L580 1230L664 1142Z" fill="#5849c8" stroke="#5849c8"></path><path d="M414 882L444 887L498 768Z" fill="#7b6de6" stroke="#7b6de6"></path><path d="M1799 704L1748 663L1658 735Z" fill="#5f50ce" stroke="#5f50ce"></path><path d="M1799 704L1658 735L1840 746Z" fill="#5142c2" stroke="#5142c2"></path><path d="M444 1086L642 1010L499 973Z" fill="#7b6de6" stroke="#7b6de6"></path><path d="M846 101L840 253L985 235Z" fill="#6d5fda" stroke="#6d5fda"></path><path d="M840 253L753 246L770 358Z" fill="#7b6de6" stroke="#7b6de6"></path><path d="M1572 372L1501 270L1535 429Z" fill="#5142c2" stroke="#5142c2"></path><path d="M1009 1500L1043 1346L878 1400Z" fill="#5142c2" stroke="#5142c2"></path><path d="M1009 1500L1107 1500L1043 1346Z" fill="#897bf3" stroke="#897bf3"></path><path d="M1218 1420L1394 1500L1335 1376Z" fill="#5849c8" stroke="#5849c8"></path><path d="M1167 167L1012 144L1140 217Z" fill="#7b6de6" stroke="#7b6de6"></path><path d="M885 1500L1009 1500L878 1400Z" fill="#6658d4" stroke="#6658d4"></path><path d="M1107 1500L1211 1500L1218 1420Z" fill="#6658d4" stroke="#6658d4"></path><path d="M382 711L414 882L498 768Z" fill="#8274ec" stroke="#8274ec"></path><path d="M444 887L415 1046L499 973Z" fill="#7466e0" stroke="#7466e0"></path><path d="M1681 1139L1773 997L1581 1032Z" fill="#8274ec" stroke="#8274ec"></path><path d="M526 327L495 475L609 392Z" fill="#978aff" stroke="#978aff"></path><path d="M609 392L495 475L589 532Z" fill="#5142c2" stroke="#5142c2"></path><path d="M510 614L382 711L498 768Z" fill="#9083f9" stroke="#9083f9"></path><path d="M1748 663L1735 517L1640 621Z" fill="#9083f9" stroke="#9083f9"></path><path d="M1713 299L1627 258L1572 372Z" fill="#5f50ce" stroke="#5f50ce"></path><path d="M1572 372L1627 258L1501 270Z" fill="#7b6de6" stroke="#7b6de6"></path><path d="M1840 746L1658 735L1705 928Z" fill="#7466e0" stroke="#7466e0"></path><path d="M1748 663L1885 672L1735 517Z" fill="#9083f9" stroke="#9083f9"></path><path d="M1625 1411L1657 1259L1491 1322Z" fill="#5f50ce" stroke="#5f50ce"></path><path d="M1491 1322L1657 1259L1472 1291Z" fill="#6d5fda" stroke="#6d5fda"></path><path d="M1681 1139L1821 1095L1773 997Z" fill="#897bf3" stroke="#897bf3"></path><path d="M415 1046L444 1086L499 973Z" fill="#5142c2" stroke="#5142c2"></path><path d="M761 1500L878 1400L708 1339Z" fill="#6d5fda" stroke="#6d5fda"></path><path d="M761 1500L885 1500L878 1400Z" fill="#9083f9" stroke="#9083f9"></path><path d="M1336 219L1277 93L1167 167Z" fill="#6658d4" stroke="#6658d4"></path><path d="M1167 167L1141 0L1012 144Z" fill="#6658d4" stroke="#6658d4"></path><path d="M1501 270L1393 158L1336 219Z" fill="#6d5fda" stroke="#6d5fda"></path><path d="M414 882L415 1046L444 887Z" fill="#978aff" stroke="#978aff"></path><path d="M404 582L382 711L510 614Z" fill="#8274ec" stroke="#8274ec"></path><path d="M414 882L345 1073L415 1046Z" fill="#7466e0" stroke="#7466e0"></path><path d="M444 1086L484 1213L580 1230Z" fill="#7b6de6" stroke="#7b6de6"></path><path d="M580 1230L602 1421L708 1339Z" fill="#5142c2" stroke="#5142c2"></path><path d="M394 1230L484 1213L444 1086Z" fill="#5849c8" stroke="#5849c8"></path><path d="M495 475L404 582L510 614Z" fill="#5849c8" stroke="#5849c8"></path><path d="M1211 1500L1394 1500L1218 1420Z" fill="#897bf3" stroke="#897bf3"></path><path d="M1849 886L1840 746L1705 928Z" fill="#9083f9" stroke="#9083f9"></path><path d="M1799 704L1885 672L1748 663Z" fill="#7466e0" stroke="#7466e0"></path><path d="M1393 158L1277 93L1336 219Z" fill="#978aff" stroke="#978aff"></path><path d="M1773 997L1849 886L1705 928Z" fill="#5142c2" stroke="#5142c2"></path><path d="M1867 982L1849 886L1773 997Z" fill="#7b6de6" stroke="#7b6de6"></path><path d="M698 82L644 222L753 246Z" fill="#8274ec" stroke="#8274ec"></path><path d="M753 246L644 222L770 358Z" fill="#6d5fda" stroke="#6d5fda"></path><path d="M318 497L299 580L404 582Z" fill="#8274ec" stroke="#8274ec"></path><path d="M644 222L526 327L609 392Z" fill="#9083f9" stroke="#9083f9"></path><path d="M602 1421L761 1500L708 1339Z" fill="#7466e0" stroke="#7466e0"></path><path d="M1012 144L846 101L985 235Z" fill="#8274ec" stroke="#8274ec"></path><path d="M1013 0L846 101L1012 144Z" fill="#978aff" stroke="#978aff"></path><path d="M1713 299L1572 372L1652 501Z" fill="#7b6de6" stroke="#7b6de6"></path><path d="M1501 270L1499 147L1393 158Z" fill="#5849c8" stroke="#5849c8"></path><path d="M1326 0L1306 0L1277 93Z" fill="#6658d4" stroke="#6658d4"></path><path d="M1713 299L1652 501L1791 369Z" fill="#9083f9" stroke="#9083f9"></path><path d="M1802 1151L1821 1095L1681 1139Z" fill="#978aff" stroke="#978aff"></path><path d="M1791 1268L1802 1151L1681 1139Z" fill="#5849c8" stroke="#5849c8"></path><path d="M1791 1268L1681 1139L1657 1259Z" fill="#6d5fda" stroke="#6d5fda"></path><path d="M1627 258L1499 147L1501 270Z" fill="#5849c8" stroke="#5849c8"></path><path d="M2000 874L1867 982L2000 998Z" fill="#7b6de6" stroke="#7b6de6"></path><path d="M1821 1095L1867 982L1773 997Z" fill="#6658d4" stroke="#6658d4"></path><path d="M2000 697L1885 672L1840 746Z" fill="#978aff" stroke="#978aff"></path><path d="M476 1385L602 1421L580 1230Z" fill="#7466e0" stroke="#7466e0"></path><path d="M1554 1500L1625 1411L1491 1322Z" fill="#7b6de6" stroke="#7b6de6"></path><path d="M2000 874L1840 746L1849 886Z" fill="#6d5fda" stroke="#6d5fda"></path><path d="M1840 746L1885 672L1799 704Z" fill="#5f50ce" stroke="#5f50ce"></path><path d="M233 969L345 1073L414 882Z" fill="#7466e0" stroke="#7466e0"></path><path d="M415 1046L345 1073L444 1086Z" fill="#6658d4" stroke="#6658d4"></path><path d="M484 1213L476 1385L580 1230Z" fill="#7466e0" stroke="#7466e0"></path><path d="M1791 369L1652 501L1735 517Z" fill="#5849c8" stroke="#5849c8"></path><path d="M1627 258L1646 165L1499 147Z" fill="#7466e0" stroke="#7466e0"></path><path d="M1394 1500L1554 1500L1491 1322Z" fill="#5849c8" stroke="#5849c8"></path><path d="M345 1073L394 1230L444 1086Z" fill="#897bf3" stroke="#897bf3"></path><path d="M1306 0L1141 0L1277 93Z" fill="#9083f9" stroke="#9083f9"></path><path d="M1277 93L1141 0L1167 167Z" fill="#5f50ce" stroke="#5f50ce"></path><path d="M2000 1214L2000 1074L1821 1095Z" fill="#5849c8" stroke="#5849c8"></path><path d="M1625 1411L1791 1268L1657 1259Z" fill="#5f50ce" stroke="#5f50ce"></path><path d="M1820 1260L1791 1268L1833 1343Z" fill="#978aff" stroke="#978aff"></path><path d="M1879 486L1791 369L1735 517Z" fill="#897bf3" stroke="#897bf3"></path><path d="M299 580L287 704L382 711Z" fill="#9083f9" stroke="#9083f9"></path><path d="M382 711L287 704L414 882Z" fill="#5849c8" stroke="#5849c8"></path><path d="M299 580L382 711L404 582Z" fill="#6d5fda" stroke="#6d5fda"></path><path d="M1141 0L1013 0L1012 144Z" fill="#5849c8" stroke="#5849c8"></path><path d="M584 99L494 240L644 222Z" fill="#6d5fda" stroke="#6d5fda"></path><path d="M318 497L404 582L495 475Z" fill="#9083f9" stroke="#9083f9"></path><path d="M644 222L494 240L526 327Z" fill="#897bf3" stroke="#897bf3"></path><path d="M363 330L318 497L495 475Z" fill="#5142c2" stroke="#5142c2"></path><path d="M698 82L753 246L846 101Z" fill="#897bf3" stroke="#897bf3"></path><path d="M1833 1343L1791 1268L1805 1422Z" fill="#8274ec" stroke="#8274ec"></path><path d="M1791 1268L1820 1260L1802 1151Z" fill="#5849c8" stroke="#5849c8"></path><path d="M749 0L698 82L846 101Z" fill="#6d5fda" stroke="#6d5fda"></path><path d="M394 1230L476 1385L484 1213Z" fill="#9083f9" stroke="#9083f9"></path><path d="M602 1421L593 1500L761 1500Z" fill="#897bf3" stroke="#897bf3"></path><path d="M1326 0L1393 158L1490 0Z" fill="#5142c2" stroke="#5142c2"></path><path d="M1326 0L1277 93L1393 158Z" fill="#5f50ce" stroke="#5f50ce"></path><path d="M1885 672L1879 486L1735 517Z" fill="#978aff" stroke="#978aff"></path><path d="M1879 486L1821 372L1791 369Z" fill="#5142c2" stroke="#5142c2"></path><path d="M1791 369L1914 238L1713 299Z" fill="#5849c8" stroke="#5849c8"></path><path d="M1490 0L1393 158L1499 147Z" fill="#7b6de6" stroke="#7b6de6"></path><path d="M363 330L495 475L526 327Z" fill="#8274ec" stroke="#8274ec"></path><path d="M521 1500L593 1500L602 1421Z" fill="#978aff" stroke="#978aff"></path><path d="M1646 165L1627 258L1741 178Z" fill="#6d5fda" stroke="#6d5fda"></path><path d="M1741 178L1627 258L1713 299Z" fill="#978aff" stroke="#978aff"></path><path d="M1013 0L842 0L846 101Z" fill="#8274ec" stroke="#8274ec"></path><path d="M1554 1500L1634 1500L1625 1411Z" fill="#8274ec" stroke="#8274ec"></path><path d="M201 879L233 969L414 882Z" fill="#6658d4" stroke="#6658d4"></path><path d="M259 1256L353 1349L394 1230Z" fill="#7466e0" stroke="#7466e0"></path><path d="M327 1500L521 1500L476 1385Z" fill="#7b6de6" stroke="#7b6de6"></path><path d="M201 879L414 882L287 704Z" fill="#5f50ce" stroke="#5f50ce"></path><path d="M424 217L363 330L494 240Z" fill="#6d5fda" stroke="#6d5fda"></path><path d="M494 240L363 330L526 327Z" fill="#5849c8" stroke="#5849c8"></path><path d="M650 0L584 99L698 82Z" fill="#7b6de6" stroke="#7b6de6"></path><path d="M698 82L584 99L644 222Z" fill="#978aff" stroke="#978aff"></path><path d="M842 0L749 0L846 101Z" fill="#978aff" stroke="#978aff"></path><path d="M476 1385L521 1500L602 1421Z" fill="#9083f9" stroke="#9083f9"></path><path d="M353 1349L476 1385L394 1230Z" fill="#8274ec" stroke="#8274ec"></path><path d="M1805 1422L1791 1268L1625 1411Z" fill="#6658d4" stroke="#6658d4"></path><path d="M2000 998L1867 982L2000 1074Z" fill="#8274ec" stroke="#8274ec"></path><path d="M1867 982L1821 1095L2000 1074Z" fill="#6d5fda" stroke="#6d5fda"></path><path d="M1867 982L2000 874L1849 886Z" fill="#6d5fda" stroke="#6d5fda"></path><path d="M1885 672L2000 579L1879 486Z" fill="#6d5fda" stroke="#6d5fda"></path><path d="M156 828L201 879L287 704Z" fill="#7b6de6" stroke="#7b6de6"></path><path d="M83 628L287 704L299 580Z" fill="#6d5fda" stroke="#6d5fda"></path><path d="M213 502L299 580L318 497Z" fill="#5f50ce" stroke="#5f50ce"></path><path d="M1914 238L1741 178L1713 299Z" fill="#5142c2" stroke="#5142c2"></path><path d="M1589 0L1490 0L1499 147Z" fill="#6658d4" stroke="#6658d4"></path><path d="M1914 238L1791 369L1821 372Z" fill="#5f50ce" stroke="#5f50ce"></path><path d="M2000 874L2000 697L1840 746Z" fill="#7b6de6" stroke="#7b6de6"></path><path d="M1879 486L2000 423L1821 372Z" fill="#978aff" stroke="#978aff"></path><path d="M1589 0L1499 147L1646 165Z" fill="#6d5fda" stroke="#6d5fda"></path><path d="M529 80L424 217L494 240Z" fill="#6d5fda" stroke="#6d5fda"></path><path d="M1821 1095L1802 1151L2000 1214Z" fill="#6d5fda" stroke="#6d5fda"></path><path d="M259 1256L345 1073L199 1144Z" fill="#6658d4" stroke="#6658d4"></path><path d="M259 1256L394 1230L345 1073Z" fill="#5142c2" stroke="#5142c2"></path><path d="M1730 1500L1805 1422L1625 1411Z" fill="#9083f9" stroke="#9083f9"></path><path d="M2000 1214L1802 1151L1820 1260Z" fill="#6658d4" stroke="#6658d4"></path><path d="M1634 1500L1730 1500L1625 1411Z" fill="#5f50ce" stroke="#5f50ce"></path><path d="M2000 697L2000 579L1885 672Z" fill="#7b6de6" stroke="#7b6de6"></path><path d="M229 277L284 375L363 330Z" fill="#7b6de6" stroke="#7b6de6"></path><path d="M363 330L284 375L318 497Z" fill="#897bf3" stroke="#897bf3"></path><path d="M2000 1214L1820 1260L2000 1341Z" fill="#7b6de6" stroke="#7b6de6"></path><path d="M650 0L529 80L584 99Z" fill="#897bf3" stroke="#897bf3"></path><path d="M584 99L529 80L494 240Z" fill="#6658d4" stroke="#6658d4"></path><path d="M424 217L229 277L363 330Z" fill="#5142c2" stroke="#5142c2"></path><path d="M749 0L650 0L698 82Z" fill="#5142c2" stroke="#5142c2"></path><path d="M284 375L213 502L318 497Z" fill="#897bf3" stroke="#897bf3"></path><path d="M99 741L156 828L287 704Z" fill="#9083f9" stroke="#9083f9"></path><path d="M201 879L167 967L233 969Z" fill="#8274ec" stroke="#8274ec"></path><path d="M156 828L167 967L201 879Z" fill="#6d5fda" stroke="#6d5fda"></path><path d="M199 1144L345 1073L233 969Z" fill="#5f50ce" stroke="#5f50ce"></path><path d="M1790 0L1589 0L1646 165Z" fill="#6658d4" stroke="#6658d4"></path><path d="M167 967L199 1144L233 969Z" fill="#6d5fda" stroke="#6d5fda"></path><path d="M2000 579L2000 447L1879 486Z" fill="#6658d4" stroke="#6658d4"></path><path d="M1741 178L1790 0L1646 165Z" fill="#5f50ce" stroke="#5f50ce"></path><path d="M2000 1341L1820 1260L1833 1343Z" fill="#978aff" stroke="#978aff"></path><path d="M2000 447L2000 423L1879 486Z" fill="#5f50ce" stroke="#5f50ce"></path><path d="M1730 1500L1818 1500L1805 1422Z" fill="#6658d4" stroke="#6658d4"></path><path d="M1805 1422L2000 1341L1833 1343Z" fill="#978aff" stroke="#978aff"></path><path d="M2000 281L1914 238L1821 372Z" fill="#897bf3" stroke="#897bf3"></path><path d="M140 334L142 521L213 502Z" fill="#978aff" stroke="#978aff"></path><path d="M213 502L142 521L299 580Z" fill="#5142c2" stroke="#5142c2"></path><path d="M140 334L213 502L284 375Z" fill="#8274ec" stroke="#8274ec"></path><path d="M83 628L99 741L287 704Z" fill="#7b6de6" stroke="#7b6de6"></path><path d="M156 828L0 911L167 967Z" fill="#7b6de6" stroke="#7b6de6"></path><path d="M106 1120L165 1195L199 1144Z" fill="#5f50ce" stroke="#5f50ce"></path><path d="M199 1144L165 1195L259 1256Z" fill="#7466e0" stroke="#7466e0"></path><path d="M259 1256L255 1377L353 1349Z" fill="#978aff" stroke="#978aff"></path><path d="M353 1349L327 1500L476 1385Z" fill="#897bf3" stroke="#897bf3"></path><path d="M106 1120L199 1144L167 967Z" fill="#5849c8" stroke="#5849c8"></path><path d="M84 1406L255 1377L259 1256Z" fill="#6658d4" stroke="#6658d4"></path><path d="M355 109L424 217L529 80Z" fill="#6d5fda" stroke="#6d5fda"></path><path d="M355 109L229 277L424 217Z" fill="#9083f9" stroke="#9083f9"></path><path d="M255 1377L327 1500L353 1349Z" fill="#9083f9" stroke="#9083f9"></path><path d="M474 0L355 109L529 80Z" fill="#6d5fda" stroke="#6d5fda"></path><path d="M650 0L474 0L529 80Z" fill="#5849c8" stroke="#5849c8"></path><path d="M2000 1500L2000 1341L1805 1422Z" fill="#9083f9" stroke="#9083f9"></path><path d="M142 521L83 628L299 580Z" fill="#9083f9" stroke="#9083f9"></path><path d="M0 635L83 628L0 543Z" fill="#6658d4" stroke="#6658d4"></path><path d="M0 784L156 828L99 741Z" fill="#8274ec" stroke="#8274ec"></path><path d="M0 989L106 1120L167 967Z" fill="#5849c8" stroke="#5849c8"></path><path d="M92 1500L271 1500L255 1377Z" fill="#5142c2" stroke="#5142c2"></path><path d="M2000 423L2000 281L1821 372Z" fill="#5142c2" stroke="#5142c2"></path><path d="M1923 121L1790 0L1741 178Z" fill="#9083f9" stroke="#9083f9"></path><path d="M1923 121L1741 178L1914 238Z" fill="#6658d4" stroke="#6658d4"></path><path d="M84 1406L259 1256L165 1195Z" fill="#7b6de6" stroke="#7b6de6"></path><path d="M255 1377L271 1500L327 1500Z" fill="#7466e0" stroke="#7466e0"></path><path d="M2000 112L1923 121L1914 238Z" fill="#978aff" stroke="#978aff"></path><path d="M98 288L140 334L229 277Z" fill="#7b6de6" stroke="#7b6de6"></path><path d="M229 277L140 334L284 375Z" fill="#897bf3" stroke="#897bf3"></path><path d="M0 635L99 741L83 628Z" fill="#5f50ce" stroke="#5f50ce"></path><path d="M0 635L0 784L99 741Z" fill="#7b6de6" stroke="#7b6de6"></path><path d="M0 784L0 911L156 828Z" fill="#6658d4" stroke="#6658d4"></path><path d="M106 1120L0 1218L165 1195Z" fill="#897bf3" stroke="#897bf3"></path><path d="M355 109L259 104L229 277Z" fill="#897bf3" stroke="#897bf3"></path><path d="M356 0L259 104L355 109Z" fill="#7466e0" stroke="#7466e0"></path><path d="M474 0L356 0L355 109Z" fill="#5f50ce" stroke="#5f50ce"></path><path d="M0 911L0 989L167 967Z" fill="#9083f9" stroke="#9083f9"></path><path d="M0 543L83 628L142 521Z" fill="#8274ec" stroke="#8274ec"></path><path d="M1818 1500L2000 1500L1805 1422Z" fill="#9083f9" stroke="#9083f9"></path><path d="M0 989L0 1084L106 1120Z" fill="#6d5fda" stroke="#6d5fda"></path><path d="M157 130L98 288L229 277Z" fill="#6d5fda" stroke="#6d5fda"></path><path d="M0 423L0 543L142 521Z" fill="#7466e0" stroke="#7466e0"></path><path d="M0 423L142 521L140 334Z" fill="#8274ec" stroke="#8274ec"></path><path d="M2000 281L2000 112L1914 238Z" fill="#5f50ce" stroke="#5f50ce"></path><path d="M1923 121L1918 0L1790 0Z" fill="#5849c8" stroke="#5849c8"></path><path d="M2000 112L1918 0L1923 121Z" fill="#6d5fda" stroke="#6d5fda"></path><path d="M259 104L157 130L229 277Z" fill="#6d5fda" stroke="#6d5fda"></path><path d="M98 288L0 423L140 334Z" fill="#8274ec" stroke="#8274ec"></path><path d="M177 0L157 130L259 104Z" fill="#6658d4" stroke="#6658d4"></path><path d="M0 206L0 423L98 288Z" fill="#5142c2" stroke="#5142c2"></path><path d="M0 1084L0 1218L106 1120Z" fill="#7b6de6" stroke="#7b6de6"></path><path d="M0 1218L84 1406L165 1195Z" fill="#7b6de6" stroke="#7b6de6"></path><path d="M356 0L216 0L259 104Z" fill="#5f50ce" stroke="#5f50ce"></path><path d="M157 130L0 206L98 288Z" fill="#5849c8" stroke="#5849c8"></path><path d="M2000 112L2000 0L1918 0Z" fill="#9083f9" stroke="#9083f9"></path><path d="M0 1500L92 1500L84 1406Z" fill="#5f50ce" stroke="#5f50ce"></path><path d="M84 1406L92 1500L255 1377Z" fill="#8274ec" stroke="#8274ec"></path><path d="M0 1218L0 1375L84 1406Z" fill="#6658d4" stroke="#6658d4"></path><path d="M216 0L177 0L259 104Z" fill="#6d5fda" stroke="#6d5fda"></path><path d="M0 133L0 206L157 130Z" fill="#7466e0" stroke="#7466e0"></path><path d="M0 1375L0 1500L84 1406Z" fill="#7b6de6" stroke="#7b6de6"></path><path d="M0 0L0 133L157 130Z" fill="#8274ec" stroke="#8274ec"></path><path d="M177 0L0 0L157 130Z" fill="#5f50ce" stroke="#5f50ce"></path></g></svg>