<svg id="visual" viewBox="0 0 2000 1500" width="2000" height="1500" xmlns="http://www.w3.org/2000/svg" xmlns:xlink="http://www.w3.org/1999/xlink" version="1.1"><path d="M0 76L83.3 78.5C166.7 81 333.3 86 500 86C666.7 86 833.3 81 1000 86C1166.7 91 1333.3 106 1500 108.5C1666.7 111 1833.3 101 1916.7 96L2000 91L2000 0L1916.7 0C1833.3 0 1666.7 0 1500 0C1333.3 0 1166.7 0 1000 0C833.3 0 666.7 0 500 0C333.3 0 166.7 0 83.3 0L0 0Z" fill="#715ffa"></path><path d="M0 136L83.3 146C166.7 156 333.3 176 500 183.5C666.7 191 833.3 186 1000 188.5C1166.7 191 1333.3 201 1500 208.5C1666.7 216 1833.3 221 1916.7 223.5L2000 226L2000 89L1916.7 94C1833.3 99 1666.7 109 1500 106.5C1333.3 104 1166.7 89 1000 84C833.3 79 666.7 84 500 84C333.3 84 166.7 79 83.3 76.5L0 74Z" fill="#5d4bd7"></path><path d="M0 361L83.3 371C166.7 381 333.3 401 500 403.5C666.7 406 833.3 391 1000 376C1166.7 361 1333.3 346 1500 361C1666.7 376 1833.3 421 1916.7 443.5L2000 466L2000 224L1916.7 221.5C1833.3 219 1666.7 214 1500 206.5C1333.3 199 1166.7 189 1000 186.5C833.3 184 666.7 189 500 181.5C333.3 174 166.7 154 83.3 144L0 134Z" fill="#4938b6"></path><path d="M0 421L83.3 433.5C166.7 446 333.3 471 500 471C666.7 471 833.3 446 1000 433.5C1166.7 421 1333.3 421 1500 441C1666.7 461 1833.3 501 1916.7 521L2000 541L2000 464L1916.7 441.5C1833.3 419 1666.7 374 1500 359C1333.3 344 1166.7 359 1000 374C833.3 389 666.7 404 500 401.5C333.3 399 166.7 379 83.3 369L0 359Z" fill="#352695"></path><path d="M0 496L83.3 503.5C166.7 511 333.3 526 500 528.5C666.7 531 833.3 521 1000 508.5C1166.7 496 1333.3 481 1500 493.5C1666.7 506 1833.3 546 1916.7 566L2000 586L2000 539L1916.7 519C1833.3 499 1666.7 459 1500 439C1333.3 419 1166.7 419 1000 431.5C833.3 444 666.7 469 500 469C333.3 469 166.7 444 83.3 431.5L0 419Z" fill="#211576"></path><path d="M0 571L83.3 591C166.7 611 333.3 651 500 658.5C666.7 666 833.3 641 1000 616C1166.7 591 1333.3 566 1500 576C1666.7 586 1833.3 631 1916.7 653.5L2000 676L2000 584L1916.7 564C1833.3 544 1666.7 504 1500 491.5C1333.3 479 1166.7 494 1000 506.5C833.3 519 666.7 529 500 526.5C333.3 524 166.7 509 83.3 501.5L0 494Z" fill="#211576"></path><path d="M0 631L83.3 653.5C166.7 676 333.3 721 500 731C666.7 741 833.3 716 1000 693.5C1166.7 671 1333.3 651 1500 661C1666.7 671 1833.3 711 1916.7 731L2000 751L2000 674L1916.7 651.5C1833.3 629 1666.7 584 1500 574C1333.3 564 1166.7 589 1000 614C833.3 639 666.7 664 500 656.5C333.3 649 166.7 609 83.3 589L0 569Z" fill="#211576"></path><path d="M0 691L83.3 718.5C166.7 746 333.3 801 500 808.5C666.7 816 833.3 776 1000 746C1166.7 716 1333.3 696 1500 706C1666.7 716 1833.3 756 1916.7 776L2000 796L2000 749L1916.7 729C1833.3 709 1666.7 669 1500 659C1333.3 649 1166.7 669 1000 691.5C833.3 714 666.7 739 500 729C333.3 719 166.7 674 83.3 651.5L0 629Z" fill="#352695"></path><path d="M0 811L83.3 841C166.7 871 333.3 931 500 936C666.7 941 833.3 891 1000 858.5C1166.7 826 1333.3 811 1500 826C1666.7 841 1833.3 886 1916.7 908.5L2000 931L2000 794L1916.7 774C1833.3 754 1666.7 714 1500 704C1333.3 694 1166.7 714 1000 744C833.3 774 666.7 814 500 806.5C333.3 799 166.7 744 83.3 716.5L0 689Z" fill="#4938b6"></path><path d="M0 1201L83.3 1201C166.7 1201 333.3 1201 500 1173.5C666.7 1146 833.3 1091 1000 1078.5C1166.7 1066 1333.3 1096 1500 1111C1666.7 1126 1833.3 1126 1916.7 1126L2000 1126L2000 929L1916.7 906.5C1833.3 884 1666.7 839 1500 824C1333.3 809 1166.7 824 1000 856.5C833.3 889 666.7 939 500 934C333.3 929 166.7 869 83.3 839L0 809Z" fill="#5d4bd7"></path><path d="M0 1501L83.3 1501C166.7 1501 333.3 1501 500 1501C666.7 1501 833.3 1501 1000 1501C1166.7 1501 1333.3 1501 1500 1501C1666.7 1501 1833.3 1501 1916.7 1501L2000 1501L2000 1124L1916.7 1124C1833.3 1124 1666.7 1124 1500 1109C1333.3 1094 1166.7 1064 1000 1076.5C833.3 1089 666.7 1144 500 1171.5C333.3 1199 166.7 1199 83.3 1199L0 1199Z" fill="#715ffa"></path></svg>