<svg id="visual" viewBox="0 0 2000 1500" width="2000" height="1500" xmlns="http://www.w3.org/2000/svg" xmlns:xlink="http://www.w3.org/1999/xlink" version="1.1"><path d="M0 76L83.3 73.5C166.7 71 333.3 66 500 63.5C666.7 61 833.3 61 1000 63.5C1166.7 66 1333.3 71 1500 71C1666.7 71 1833.3 66 1916.7 63.5L2000 61L2000 0L1916.7 0C1833.3 0 1666.7 0 1500 0C1333.3 0 1166.7 0 1000 0C833.3 0 666.7 0 500 0C333.3 0 166.7 0 83.3 0L0 0Z" fill="#211576"></path><path d="M0 466L83.3 473.5C166.7 481 333.3 496 500 468.5C666.7 441 833.3 371 1000 333.5C1166.7 296 1333.3 291 1500 281C1666.7 271 1833.3 256 1916.7 248.5L2000 241L2000 59L1916.7 61.5C1833.3 64 1666.7 69 1500 69C1333.3 69 1166.7 64 1000 61.5C833.3 59 666.7 59 500 61.5C333.3 64 166.7 69 83.3 71.5L0 74Z" fill="#352695"></path><path d="M0 571L83.3 583.5C166.7 596 333.3 621 500 598.5C666.7 576 833.3 506 1000 463.5C1166.7 421 1333.3 406 1500 391C1666.7 376 1833.3 361 1916.7 353.5L2000 346L2000 239L1916.7 246.5C1833.3 254 1666.7 269 1500 279C1333.3 289 1166.7 294 1000 331.5C833.3 369 666.7 439 500 466.5C333.3 494 166.7 479 83.3 471.5L0 464Z" fill="#4938b6"></path><path d="M0 616L83.3 631C166.7 646 333.3 676 500 658.5C666.7 641 833.3 576 1000 533.5C1166.7 491 1333.3 471 1500 456C1666.7 441 1833.3 431 1916.7 426L2000 421L2000 344L1916.7 351.5C1833.3 359 1666.7 374 1500 389C1333.3 404 1166.7 419 1000 461.5C833.3 504 666.7 574 500 596.5C333.3 619 166.7 594 83.3 581.5L0 569Z" fill="#5d4bd7"></path><path d="M0 736L83.3 748.5C166.7 761 333.3 786 500 768.5C666.7 751 833.3 691 1000 648.5C1166.7 606 1333.3 581 1500 566C1666.7 551 1833.3 546 1916.7 543.5L2000 541L2000 419L1916.7 424C1833.3 429 1666.7 439 1500 454C1333.3 469 1166.7 489 1000 531.5C833.3 574 666.7 639 500 656.5C333.3 674 166.7 644 83.3 629L0 614Z" fill="#715ffa"></path><path d="M0 841L83.3 851C166.7 861 333.3 881 500 863.5C666.7 846 833.3 791 1000 748.5C1166.7 706 1333.3 676 1500 663.5C1666.7 651 1833.3 656 1916.7 658.5L2000 661L2000 539L1916.7 541.5C1833.3 544 1666.7 549 1500 564C1333.3 579 1166.7 604 1000 646.5C833.3 689 666.7 749 500 766.5C333.3 784 166.7 759 83.3 746.5L0 734Z" fill="#715ffa"></path><path d="M0 916L83.3 923.5C166.7 931 333.3 946 500 926C666.7 906 833.3 851 1000 813.5C1166.7 776 1333.3 756 1500 748.5C1666.7 741 1833.3 746 1916.7 748.5L2000 751L2000 659L1916.7 656.5C1833.3 654 1666.7 649 1500 661.5C1333.3 674 1166.7 704 1000 746.5C833.3 789 666.7 844 500 861.5C333.3 879 166.7 859 83.3 849L0 839Z" fill="#715ffa"></path><path d="M0 1021L83.3 1026C166.7 1031 333.3 1041 500 1016C666.7 991 833.3 931 1000 891C1166.7 851 1333.3 831 1500 823.5C1666.7 816 1833.3 821 1916.7 823.5L2000 826L2000 749L1916.7 746.5C1833.3 744 1666.7 739 1500 746.5C1333.3 754 1166.7 774 1000 811.5C833.3 849 666.7 904 500 924C333.3 944 166.7 929 83.3 921.5L0 914Z" fill="#5d4bd7"></path><path d="M0 1111L83.3 1111C166.7 1111 333.3 1111 500 1083.5C666.7 1056 833.3 1001 1000 958.5C1166.7 916 1333.3 886 1500 876C1666.7 866 1833.3 876 1916.7 881L2000 886L2000 824L1916.7 821.5C1833.3 819 1666.7 814 1500 821.5C1333.3 829 1166.7 849 1000 889C833.3 929 666.7 989 500 1014C333.3 1039 166.7 1029 83.3 1024L0 1019Z" fill="#4938b6"></path><path d="M0 1351L83.3 1338.5C166.7 1326 333.3 1301 500 1253.5C666.7 1206 833.3 1136 1000 1106C1166.7 1076 1333.3 1086 1500 1098.5C1666.7 1111 1833.3 1126 1916.7 1133.5L2000 1141L2000 884L1916.7 879C1833.3 874 1666.7 864 1500 874C1333.3 884 1166.7 914 1000 956.5C833.3 999 666.7 1054 500 1081.5C333.3 1109 166.7 1109 83.3 1109L0 1109Z" fill="#352695"></path><path d="M0 1501L83.3 1501C166.7 1501 333.3 1501 500 1501C666.7 1501 833.3 1501 1000 1501C1166.7 1501 1333.3 1501 1500 1501C1666.7 1501 1833.3 1501 1916.7 1501L2000 1501L2000 1139L1916.7 1131.5C1833.3 1124 1666.7 1109 1500 1096.5C1333.3 1084 1166.7 1074 1000 1104C833.3 1134 666.7 1204 500 1251.5C333.3 1299 166.7 1324 83.3 1336.5L0 1349Z" fill="#211576"></path></svg>